<svg width="55" height="55" viewBox="0 0 55 55" fill="none" xmlns="http://www.w3.org/2000/svg">
<g clip-path="url(#clip0_564_22943)">
<path d="M48.7469 12.8584L29.2531 1.58802C27.8816 0.803993 26.1184 0.803993 24.649 1.58802L5.25306 12.8584C3.88163 13.6425 3 15.2105 3 16.7786V41.8675H3.09796L8.68163 45.1016L10.4449 46.1797L16.5184 49.7078L24.7469 54.412C26.1184 55.196 27.8816 55.196 29.351 54.412L48.7469 43.1416C50.1184 42.3575 51 40.7895 51 39.2214V16.7786C51 15.1125 50.1184 13.6425 48.7469 12.8584ZM47.7673 37.3593L37.1878 19.3267L33.1714 26.1869L42.9673 42.8476L41.1061 43.9256L31.8 28.343L27.7837 35.2033L35.0327 47.3557L27.8816 51.4719C27.2939 51.7659 26.7061 51.7659 26.1184 51.4719L18.1837 46.8657L36.1102 16.7786H27.9796L12.1102 43.4356L10.249 42.3575L25.2367 16.7786H20.6327C18.4776 16.7786 16.4204 17.9546 15.2449 19.8167L6.23265 35.4973V16.9746C6.23265 16.3866 6.52653 15.7985 7.11429 15.4065L26.1184 4.52813C26.7061 4.23412 27.2939 4.23412 27.8816 4.52813L46.8857 15.5045C47.4735 15.7985 47.7673 16.3866 47.7673 17.0726V37.3593V37.3593Z" fill="#8c8c8c"/>
</g>
<defs>
<clipPath id="clip0_564_22943">
<rect width="48" height="54" fill="#8c8c8c" transform="translate(3 1)"/>
</clipPath>
</defs>
</svg>
