<svg xmlns="http://www.w3.org/2000/svg" width="42.443" height="37.67" viewBox="0 0 42.443 37.67">
  <path id="Path_249" data-name="Path 249" d="M29.712,54.908H22.575c-1.5,0-2.24,0-2.692-.289a1.814,1.814,0,0,1-.822-1.419c-.027-.533.343-1.183,1.084-2.484L37.766,19.657c.75-1.319,1.129-1.978,1.608-2.222a1.818,1.818,0,0,1,1.644,0c.479.244.858.9,1.608,2.222l3.623,6.324.018.032a11.861,11.861,0,0,1,1.4,2.886,5.365,5.365,0,0,1,0,2.511,11.906,11.906,0,0,1-1.409,2.918L37,50.69l-.024.042a11.738,11.738,0,0,1-1.8,2.7,5.388,5.388,0,0,1-2.2,1.274A12.911,12.911,0,0,1,29.712,54.908Zm18.022,0H57.96c1.509,0,2.268,0,2.72-.3a1.808,1.808,0,0,0,.822-1.427c.026-.516-.336-1.141-1.046-2.366l-.074-.127-5.122-8.763-.058-.1c-.72-1.217-1.083-1.832-1.55-2.069a1.8,1.8,0,0,0-1.635,0c-.47.244-.849.885-1.6,2.177l-5.1,8.763-.017.03c-.747,1.29-1.121,1.934-1.094,2.463a1.83,1.83,0,0,0,.822,1.427C45.467,54.908,46.226,54.908,47.734,54.908Z" transform="translate(-19.06 -17.238)" fill="#8c8c8c" fill-rule="evenodd"/>
</svg>
