<svg width="55" height="55" viewBox="0 0 55 55" fill="none" xmlns="http://www.w3.org/2000/svg">
<path fill-rule="evenodd" clip-rule="evenodd" d="M32.7529 45.8531V51.9143L27.4447 55L22.1365 52.0245V45.9633L27.4447 48.9388L32.7529 45.8531ZM4 25.0245L9.30824 28V38.4694L18.3765 43.7592V49.8204L4 41.5551V25.0245ZM51 24.9143V41.4449L36.6235 49.7102V43.649L45.6918 38.4694V28L51 24.9143ZM36.6235 16.649L41.9318 19.6245V25.6857L32.7529 31.0857V41.5551L27.4447 44.5306L22.1365 41.5551V31.0857L13.0682 25.9061V19.7347L18.3765 16.7592L27.4447 21.9388L36.6235 16.649ZM41.8212 30.2041V36.2653L36.5129 39.2408V33.0694L41.8212 30.2041ZM13.0682 30.2041L18.3765 33.1796V39.2408L13.0682 36.2653V30.2041ZM45.6918 11.4694L51 14.5551V20.6163L45.6918 23.5918V17.5306L40.3835 14.4449L45.6918 11.4694ZM9.30824 11.4694L14.5059 14.5551L9.30824 17.5306V23.5918L4 20.6163V14.4449L9.30824 11.4694ZM27.4447 11.4694L32.7529 14.5551L27.4447 17.5306L22.1365 14.5551L27.4447 11.4694ZM27.4447 1L41.8212 9.26531L36.5129 12.2408L27.4447 7.06122L18.3765 12.351L13.0682 9.26531L27.4447 1Z" fill="#8c8c8c"/>
</svg>
