<svg width="55" height="55" viewBox="0 0 55 55" fill="none" xmlns="http://www.w3.org/2000/svg">
<path fill-rule="evenodd" clip-rule="evenodd" d="M32.7 3C43.3 3 52 11.7 52 22.3C52 30.3 47.1 37.2 40.2 40.1C37.3 47.1 30.4 51.9 22.4 51.9C11.7 52 3 43.3 3 32.7C3 24.7 7.9 17.8 14.8 14.9C17.8 7.9 24.6 3 32.7 3ZM8.2 32.7C8.2 40.5 14.6 46.9 22.4 46.9C26.8 46.9 30.7 44.9 33.3 41.7H32.7C22 41.7 13.3 33 13.3 22.3V21.7C10.2 24.3 8.2 28.2 8.2 32.7ZM22.3 18.5C21.1 18.5 20 18.6 18.9 18.9C18.6 20 18.5 21.2 18.5 22.3C18.5 30.1 24.9 36.5 32.7 36.5C33.9 36.5 35 36.4 36.1 36.1C36.4 35 36.5 33.8 36.5 32.7C36.5 24.8 30.2 18.5 22.3 18.5ZM32.7 8.2C28.3 8.2 24.4 10.2 21.8 13.4H22.4C33.1 13.4 41.7 22.1 41.7 32.7V33.3C44.9 30.7 46.9 26.8 46.9 22.4C46.8 14.5 40.5 8.2 32.7 8.2Z" fill="#8c8c8c"/>
</svg>
