<svg width="55" height="55" viewBox="0 0 55 55" fill="none" xmlns="http://www.w3.org/2000/svg">
<g clip-path="url(#clip0_564_22949)">
<path fill-rule="evenodd" clip-rule="evenodd" d="M24.6545 1.55061C25.9636 0.889381 27.9273 0.889381 29.2364 1.55061L42.4364 8.60367C43.2 9.04448 43.6364 9.5955 43.7455 10.2567V45.6322C43.7455 46.2935 43.3091 47.0649 42.4364 47.5057L29.2364 54.5588C27.9273 55.22 25.9636 55.22 24.6545 54.5588L11.4545 47.3955C10.5818 46.9547 10.2545 46.2935 10.1455 45.522C10.1455 45.4118 10.1455 45.4118 10.1455 45.3016V10.4771V10.3669V10.2567C10.2545 9.5955 10.6909 8.93428 11.4545 8.60367L24.6545 1.55061ZM41.6727 29.9833L29.2364 36.5955C27.9273 37.2567 25.9636 37.2567 24.6545 36.5955L12.3273 29.9833V45.522L24.6545 52.1343C25.4182 52.5751 26.1818 52.9057 26.8364 52.9057C27.6 52.9057 28.2545 52.5751 29.0182 52.1343L41.5636 45.4118V29.9833H41.6727ZM8.07273 44.8608C8.07273 46.1833 8.18182 47.0649 8.50909 47.7261C8.72727 48.2771 9.16364 48.6077 9.81818 49.1588C9.92727 49.269 10.1455 49.3792 10.3636 49.4894L10.5818 49.5996L11.4545 50.0404L10.3636 51.8037L9.49091 51.2526L9.38182 51.1424C9.16364 51.0322 8.94545 50.8118 8.72727 50.7016C6.76364 49.4894 6 48.0567 6 44.971V44.8608H8.07273ZM25.9636 20.5057C25.8545 20.5057 25.7455 20.6159 25.7455 20.6159L12.4364 27.669L25.6364 34.722C25.7455 34.722 25.8545 34.8322 25.8545 34.8322V20.5057H25.9636ZM28.0364 20.5057V34.8322C28.1455 34.8322 28.2545 34.722 28.2545 34.722L41.4545 27.669L28.2545 20.6159C28.1455 20.5057 28.0364 20.5057 28.0364 20.5057ZM41.6727 12.7914L29.8909 19.0731L41.6727 25.3547V12.7914ZM12.3273 12.7914V25.3547L24.1091 19.0731L12.3273 12.7914ZM28.2545 3.42408C27.6 3.09346 26.2909 3.09346 25.6364 3.42408L12.4364 10.3669L25.6364 17.5302C26.2909 17.8608 27.6 17.8608 28.2545 17.5302L41.4545 10.4771L28.2545 3.42408ZM43.6364 4.1955L44.5091 4.74652L44.6182 4.85673C44.8364 4.96693 45.0545 5.18734 45.2727 5.29754C47.2364 6.61999 48 8.16285 48 11.2486V11.3588H45.9273C45.9273 10.0363 45.8182 9.15469 45.4909 8.49346C45.2727 7.94244 44.8364 7.61183 44.1818 7.06081C44.0727 6.95061 43.8545 6.8404 43.6364 6.7302L43.4182 6.61999L42.6545 6.17918L43.6364 4.1955Z" fill="#8c8c8c"/>
</g>
<defs>
<clipPath id="clip0_564_22949">
<rect width="42" height="54" fill="#8c8c8c" transform="translate(6 1)"/>
</clipPath>
</defs>
</svg>
