<svg xmlns="http://www.w3.org/2000/svg" width="73.276" height="38.568" viewBox="0 0 73.276 38.568">
  <g id="Group_254" data-name="Group 254" transform="translate(-5569.5 -7683.216)">
    <path id="Path_247" data-name="Path 247" d="M140.934,219.915a17.157,17.157,0,0,1-10.446-3,10.255,10.255,0,0,1-4.018-8.678,19.284,19.284,0,0,1,.268-2.893q.7-3.857,1.982-9.267,3.642-14.731,18.8-14.731a18.69,18.69,0,0,1,7.392,1.393,11.233,11.233,0,0,1,5.142,4.071,10.924,10.924,0,0,1,1.875,6.428,19.032,19.032,0,0,1-.268,2.839q-.8,4.767-1.928,9.267-1.875,7.339-6.482,10.981Q148.648,219.915,140.934,219.915Zm.75-7.714a7.613,7.613,0,0,0,5.089-1.768,9.86,9.86,0,0,0,3.053-5.41q1.232-5.035,1.875-8.785a12.292,12.292,0,0,0,.214-2.3q0-4.874-5.089-4.875a7.821,7.821,0,0,0-5.143,1.768,10.039,10.039,0,0,0-3,5.41q-.964,3.589-1.928,8.785a11.435,11.435,0,0,0-.214,2.25Q136.542,212.2,141.684,212.2Z" transform="translate(5443.029 7501.869)" fill="#8c8c8c"/>
    <path id="Path_248" data-name="Path 248" d="M256.545,220.72a1.134,1.134,0,0,1-.911-.375,1.28,1.28,0,0,1-.161-.964l7.392-34.819a1.533,1.533,0,0,1,.589-.964,1.634,1.634,0,0,1,1.018-.375h14.249q5.946,0,9.535,2.464a8.073,8.073,0,0,1,3.643,7.125,12.827,12.827,0,0,1-.321,2.785q-1.339,6.16-5.41,9.107-4.018,2.946-11.035,2.946H267.9l-2.464,11.731a1.535,1.535,0,0,1-.589.964,1.633,1.633,0,0,1-1.018.375Zm18.963-20.463a6.382,6.382,0,0,0,3.91-1.232,5.785,5.785,0,0,0,2.25-3.535,9.391,9.391,0,0,0,.161-1.607,2.976,2.976,0,0,0-.911-2.357,4.489,4.489,0,0,0-3.107-.857h-6.428l-2.035,9.589Z" transform="translate(5350.876 7500.528)" fill="#8c8c8c"/>
  </g>
</svg>
