<svg width="55" height="55" viewBox="0 0 55 55" fill="none" xmlns="http://www.w3.org/2000/svg">
<g clip-path="url(#clip0_564_22909)">
<path fill-rule="evenodd" clip-rule="evenodd" d="M41.0204 19.1658C40.0469 18.625 38.749 18.625 37.6673 19.1658L29.9878 23.7086L24.7959 26.6291L17.2245 31.0637C16.251 31.6046 14.9531 31.6046 13.8714 31.0637L7.81429 27.4944C6.84082 26.9535 6.19184 25.8719 6.19184 24.6821V17.7597C6.19184 16.5699 6.73265 15.4882 7.81429 14.9474L13.7633 11.4862C14.7367 10.9454 16.0347 10.9454 17.1163 11.4862L23.0653 14.9474C24.0388 15.4882 24.6878 16.5699 24.6878 17.7597V22.3025L29.8796 19.2739V14.7311C29.8796 13.5413 29.3388 12.4597 28.2571 11.9188L17.2245 5.42905C16.251 4.88823 14.9531 4.88823 13.8714 5.42905L2.62245 11.9188C1.54082 12.4597 1 13.5413 1 14.7311V27.7107C1 28.9005 1.54082 29.9821 2.62245 30.5229L13.8714 37.0127C14.8449 37.5535 16.1429 37.5535 17.2245 37.0127L24.9041 32.578L30.0959 29.5495L37.7755 25.1148C38.749 24.5739 40.0469 24.5739 41.1286 25.1148L47.0775 28.576C48.051 29.1168 48.7 30.1984 48.7 31.3882V38.3107C48.7 39.5005 48.1592 40.5821 47.0775 41.1229L41.0204 44.8005C40.0469 45.3413 38.749 45.3413 37.6673 44.8005L31.7184 41.3393C30.7449 40.6903 30.0959 39.6086 30.0959 38.527V33.9842L24.9041 37.0127V41.5556C24.9041 42.7454 25.4449 43.827 26.5265 44.3678L37.7755 50.8576C38.749 51.3984 40.0469 51.3984 41.1286 50.8576L52.3775 44.3678C53.351 43.827 54 42.7454 54 41.5556V28.576C54 27.3862 53.4592 26.3046 52.3775 25.7637L41.0204 19.1658Z" fill="#8c8c8c"/>
</g>
<defs>
<clipPath id="clip0_564_22909">
<rect width="53" height="46.2939" fill="#8c8c8c" transform="translate(1 5)"/>
</clipPath>
</defs>
</svg>
