<svg id="Group_254" data-name="Group 254" xmlns="http://www.w3.org/2000/svg" width="36.326" height="51.389" viewBox="0 0 36.326 51.389">
  <path id="Path_259" data-name="Path 259" d="M3.981,0H32.345a3.981,3.981,0,0,1,3.981,3.981v31.15a4.976,4.976,0,0,1-1.839,3.863L20.045,50.721a2.986,2.986,0,0,1-3.764,0L1.839,38.994A4.976,4.976,0,0,1,0,35.131V3.981A3.981,3.981,0,0,1,3.981,0Z" fill="#8c8c8c" fill-rule="evenodd"/>
  <path id="Path_260" data-name="Path 260" d="M26.046,4.648a2.986,2.986,0,0,1,2.986,2.986v9.709a3.67,3.67,0,0,1-3.59,3.591h0a3.67,3.67,0,0,1,3.591,3.59v6.1a2.986,2.986,0,0,1-1.011,2.24l-7.5,6.613v-13.5A2.986,2.986,0,0,0,17.534,23H13.159V39.481l-7.5-6.613a2.986,2.986,0,0,1-1.011-2.24v-23A2.986,2.986,0,0,1,7.634,4.648ZM20.52,8.777H13.159v9.175h4.375a2.986,2.986,0,0,0,2.986-2.986Z" transform="translate(1.323 1.323)" fill="white" fill-rule="evenodd"/>
</svg>
